<svg viewBox="0 0 428.93 430.36" xmlns="http://www.w3.org/2000/svg">
<g transform="translate(-324.227291,439.798397) scale(0.100000,-0.100000)"
fill="currentColor" stroke="none">
<path d="M5349 4396 c-2 -2 -48 -6 -101 -9 -158 -9 -328 -43 -518 -102 -105
-32 -115 -36 -263 -104 -317 -145 -616 -395 -827 -691 -86 -121 -107 -156
-184 -315 -84 -173 -152 -373 -176 -520 -6 -38 -16 -92 -21 -120 -17 -84 -22
-352 -10 -485 50 -540 297 -1038 696 -1401 235 -213 545 -385 855 -472 113
-32 153 -41 285 -62 317 -52 753 -2 1070 122 292 114 538 277 762 504 531 541
737 1318 543 2051 -32 119 -63 214 -74 225 -3 3 -6 13 -6 21 0 22 -133 282
-185 364 -85 131 -167 231 -290 353 -66 66 -136 132 -155 148 -165 130 -235
175 -415 265 -252 127 -527 202 -795 217 -58 3 -123 8 -146 11 -22 2 -42 3
-45 0z m294 -57 c23 -4 71 -13 107 -19 111 -19 257 -58 358 -96 190 -71 427
-198 541 -290 107 -85 161 -134 245 -219 306 -311 500 -698 576 -1150 23 -137
28 -468 9 -584 -21 -128 -50 -276 -61 -311 -33 -104 -44 -134 -86 -235 -60
-143 -111 -239 -185 -350 -70 -105 -100 -148 -107 -155 -3 -3 -38 -42 -78 -87
-106 -120 -188 -195 -309 -287 -238 -180 -487 -297 -778 -365 -49 -12 -99 -24
-110 -27 -52 -13 -290 -34 -380 -33 -96 0 -279 17 -396 37 -304 52 -677 224
-926 428 -171 140 -347 337 -465 520 -61 94 -158 296 -196 404 -48 139 -63
194 -86 315 -34 178 -37 217 -37 417 0 437 123 835 370 1193 30 44 58 82 61
85 3 3 31 37 62 75 202 249 509 472 819 596 159 63 291 101 409 118 41 6 100
15 130 20 67 11 454 11 513 0z"/>
<path d="M4895 4149 c-92 -89 -95 -91 -167 -106 -116 -24 -213 -59 -355 -129
-143 -70 -210 -115 -348 -235 -243 -210 -377 -430 -283 -463 42 -15 69 4 233
170 l150 151 42 -4 c49 -6 102 21 120 59 7 15 29 29 61 41 29 10 61 30 76 48
14 17 33 29 42 27 13 -3 12 -7 -6 -28 -12 -14 -36 -42 -53 -63 -18 -22 -39
-47 -48 -58 -10 -11 -23 -17 -32 -13 -18 6 -65 -16 -89 -43 -10 -10 -25 -39
-33 -63 -9 -25 -26 -54 -38 -65 -37 -32 -57 -67 -57 -98 0 -19 -9 -36 -24 -48
-30 -23 -53 -68 -62 -118 -4 -20 -17 -49 -29 -66 -31 -42 -47 -88 -44 -122 2
-18 -6 -41 -21 -63 -21 -29 -25 -45 -23 -100 0 -36 -3 -70 -9 -77 -17 -21 -13
-121 6 -142 13 -14 14 -24 6 -45 -19 -52 -5 -128 27 -149 10 -6 10 -13 3 -27
-13 -25 -13 -86 1 -113 6 -12 22 -32 36 -43 20 -17 23 -25 15 -40 -6 -11 -8
-32 -5 -48 7 -33 73 -106 97 -106 9 0 14 -5 11 -10 -19 -30 76 -130 123 -130
13 0 28 -12 39 -31 21 -36 79 -69 121 -69 19 0 35 -9 49 -28 29 -40 82 -63
119 -53 23 6 36 2 68 -21 46 -33 87 -36 137 -9 22 12 68 22 115 26 44 4 84 10
89 13 6 3 -3 -10 -20 -27 -34 -37 -183 -151 -197 -151 -5 0 -29 13 -52 29 -70
49 -308 169 -396 202 -139 50 -287 50 -378 -2 -18 -10 -35 -19 -37 -19 -9 0
-54 100 -93 205 -44 122 -77 259 -91 380 -11 93 -6 449 8 515 5 25 19 90 31
146 25 109 22 147 -11 165 -91 48 -182 -133 -238 -472 -6 -37 -11 -78 -11 -93
0 -14 -4 -26 -10 -26 -13 0 -42 -58 -47 -96 -2 -18 3 -46 11 -62 14 -26 14
-31 1 -42 -23 -19 -19 -108 7 -150 14 -23 21 -48 19 -73 -3 -44 15 -103 33
-110 10 -4 12 -18 9 -50 -6 -49 14 -99 47 -120 16 -9 20 -23 20 -60 0 -43 5
-54 35 -84 28 -28 35 -43 35 -73 0 -44 36 -104 67 -108 23 -3 25 -11 43 -162
25 -213 122 -387 319 -574 29 -28 60 -57 67 -64 15 -14 136 -102 189 -137 47
-31 222 -114 310 -147 231 -87 475 -148 591 -148 43 0 74 22 74 53 0 44 -108
117 -219 147 -27 7 -42 18 -47 33 -12 40 -45 66 -93 73 -25 4 -58 16 -72 27
-15 10 -48 22 -73 24 -25 3 -46 10 -46 14 0 16 -64 49 -95 49 -19 0 -35 7 -43
20 -13 21 -82 60 -107 60 -9 0 -29 16 -46 35 -19 21 -43 37 -64 41 -21 4 -37
13 -40 24 -8 26 -70 78 -100 86 -14 3 -25 12 -25 20 0 7 -15 29 -34 47 l-33
34 39 -14 c21 -7 49 -11 61 -8 13 4 36 -1 52 -9 38 -20 102 -20 139 -1 16 9
36 13 45 10 31 -12 103 8 136 37 24 21 40 27 57 23 13 -3 34 -2 48 3 18 7 32
4 57 -10 18 -11 45 -18 61 -17 17 2 40 -5 59 -19 35 -25 90 -29 118 -8 14 10
25 11 39 4 10 -6 42 -8 69 -5 39 3 56 11 74 31 13 15 23 33 23 41 0 7 9 17 20
20 11 4 47 31 80 61 l59 55 43 -42 c24 -23 59 -52 79 -65 21 -13 39 -34 43
-49 11 -44 107 -71 157 -45 14 8 25 7 41 -5 31 -21 77 -19 118 7 19 12 47 20
62 19 16 -1 41 7 58 19 24 17 33 19 51 9 12 -6 35 -8 51 -5 24 5 37 0 63 -23
33 -29 106 -48 138 -35 9 3 26 -1 39 -10 29 -20 94 -20 132 -1 17 9 41 13 55
10 14 -3 41 -1 59 4 l33 10 -26 -30 c-14 -17 -25 -35 -25 -40 0 -5 -18 -18
-40 -29 -43 -22 -90 -68 -90 -87 0 -7 -9 -13 -20 -13 -31 0 -75 -25 -93 -53
-10 -15 -30 -27 -53 -32 -23 -4 -51 -20 -72 -41 -23 -23 -43 -34 -64 -34 -34
0 -68 -16 -85 -40 -7 -10 -31 -19 -58 -22 -26 -3 -56 -14 -68 -26 -12 -11 -44
-23 -71 -27 -52 -7 -96 -42 -96 -76 0 -13 -12 -21 -42 -30 -65 -17 -165 -66
-193 -93 -49 -49 -21 -106 51 -106 99 0 368 67 554 137 129 49 325 144 381
184 121 88 171 129 254 213 163 163 248 320 275 504 24 165 31 187 63 202 35
15 60 69 55 116 -3 25 0 34 14 37 26 7 58 67 58 111 0 29 6 43 25 58 31 24 50
90 36 128 -7 22 -6 30 5 34 26 10 46 75 39 123 -4 29 -3 43 5 43 6 0 18 17 26
37 16 38 13 115 -5 137 -6 7 -6 17 -1 26 25 39 5 137 -34 169 -9 8 -16 29 -16
51 0 20 -4 61 -10 91 -5 30 -14 83 -20 119 -32 183 -117 340 -185 340 -54 0
-67 -59 -40 -180 42 -184 46 -217 46 -425 1 -232 -9 -315 -60 -497 -34 -125
-116 -318 -134 -318 -5 0 -21 8 -35 19 -64 45 -242 52 -347 12 -138 -51 -328
-146 -429 -215 -21 -14 -42 -26 -46 -26 -17 0 -237 168 -228 175 11 8 190 -24
217 -39 45 -24 104 -17 140 18 24 23 31 25 58 15 26 -9 38 -7 72 11 23 11 47
32 53 45 9 20 19 25 45 25 19 0 44 5 56 11 32 17 77 61 77 76 0 7 9 13 20 13
49 0 130 75 130 121 0 8 14 22 32 30 48 21 73 62 74 119 0 39 6 55 26 75 31
31 37 58 28 120 -5 30 -3 48 5 55 25 21 39 88 27 129 -10 31 -9 44 3 67 19 36
19 101 1 136 -10 19 -12 38 -6 63 9 40 -11 115 -36 136 -8 6 -14 29 -14 52 0
40 -34 127 -50 127 -4 0 -10 19 -14 42 -7 43 -60 138 -77 138 -5 0 -9 11 -9
25 0 35 -23 78 -60 108 -16 14 -30 33 -30 42 0 50 -86 140 -126 132 -20 -3
-36 10 -94 79 -45 54 -64 84 -54 84 8 0 29 -13 45 -30 17 -16 52 -37 80 -47
27 -10 52 -26 55 -35 3 -10 20 -30 39 -44 27 -20 43 -25 83 -23 l50 2 154
-156 c152 -155 183 -176 227 -162 17 5 21 15 21 46 0 76 -80 197 -227 341 -80
79 -244 218 -257 218 -3 0 -22 11 -42 25 -113 77 -353 172 -516 205 -51 10
-62 17 -105 67 -100 116 -174 150 -221 101 -29 -32 -23 -74 24 -150 l23 -37
-35 -30 -35 -31 -48 25 c-27 13 -88 32 -135 41 -109 22 -218 9 -314 -36 l-64
-30 -34 28 c-35 27 -42 46 -24 57 19 12 50 84 50 118 0 43 -26 67 -74 67 -33
0 -47 -10 -131 -91z m-46 -275 c19 -17 -2 -44 -35 -44 -32 0 -74 20 -74 36 0
34 77 39 109 8z m1165 20 c23 -9 20 -41 -4 -54 -32 -17 -84 -9 -88 14 -4 19
13 36 38 36 11 0 11 -3 2 -12 -19 -19 -14 -28 18 -28 34 0 41 23 13 39 -20 11
-4 15 21 5z m-1314 -38 c0 -35 -81 -61 -108 -34 -9 9 -8 16 5 30 21 23 103 26
103 4z m1480 -1 c18 -22 5 -45 -27 -45 -33 0 -73 25 -73 46 0 20 83 19 100 -1z
m-310 -45 c0 -18 -53 -70 -71 -70 -31 0 -24 44 12 74 24 21 34 24 45 15 8 -6
14 -15 14 -19z m-890 -12 c22 -37 21 -51 -4 -56 -21 -4 -45 15 -57 46 -20 51
31 59 61 10z m-430 4 c0 -33 -89 -68 -105 -41 -9 14 22 47 49 52 45 9 56 7 56
-11z m1762 -6 c26 -16 23 -46 -4 -46 -25 0 -88 35 -88 48 0 25 51 24 92 -2z
m-1426 -20 c3 -15 -2 -39 -15 -65 -30 -59 -51 -155 -51 -240 0 -63 -3 -77 -25
-103 -14 -16 -25 -40 -25 -54 0 -13 -10 -33 -22 -44 -56 -51 -69 -67 -79 -97
-5 -18 -19 -35 -30 -38 -25 -8 -70 -75 -71 -106 -1 -13 -19 -43 -42 -66 -35
-38 -40 -49 -44 -103 -2 -33 -8 -60 -13 -60 -4 0 -20 -20 -34 -43 -28 -49 -32
-102 -10 -134 14 -20 13 -25 -4 -55 -30 -53 -35 -107 -12 -150 10 -21 16 -38
12 -38 -14 0 -27 -65 -20 -99 10 -47 40 -84 79 -97 19 -6 39 -23 48 -40 38
-74 156 -182 225 -206 50 -18 21 -19 -49 -2 -38 9 -115 38 -172 66 -92 45
-110 58 -170 127 -121 137 -165 263 -165 471 0 172 29 279 135 498 86 178 262
426 433 610 22 24 44 50 48 58 8 14 40 32 59 33 4 1 10 -10 14 -23z m1088 -24
c17 -20 49 -57 72 -82 62 -69 153 -185 228 -290 209 -292 324 -595 309 -813
-6 -93 -35 -221 -63 -282 -86 -186 -266 -318 -490 -359 l-35 -7 40 22 c76 42
156 113 197 176 27 42 47 63 60 63 11 0 33 14 48 30 37 40 49 106 26 150 -14
29 -14 35 -1 53 21 30 19 101 -6 148 -16 32 -18 44 -8 55 29 35 2 149 -41 176
-14 9 -18 19 -14 35 11 43 -6 92 -45 133 -21 23 -41 55 -45 72 -8 38 -49 94
-76 103 -11 3 -20 14 -20 23 0 27 -38 82 -69 100 -21 12 -31 26 -35 52 -3 20
-16 47 -28 60 -19 20 -22 33 -20 82 4 70 -22 196 -53 258 -16 33 -20 52 -14
69 12 30 42 20 83 -27z m-1564 -14 c-1 -21 -23 -42 -64 -61 -43 -20 -63 -9
-45 25 19 36 109 65 109 36z m2042 -16 c21 -20 29 -34 25 -46 -6 -15 -10 -15
-44 -1 -39 16 -63 39 -63 62 0 23 49 14 82 -15z m-1434 -73 c2 -21 1 -22 -9
-6 -16 26 -43 3 -28 -24 5 -11 14 -17 20 -14 5 4 9 -1 9 -10 0 -11 -7 -15 -22
-13 -30 4 -37 57 -12 82 21 22 38 16 42 -15z m790 -2 c18 -37 7 -69 -21 -65
-15 2 -23 11 -25 28 -2 22 -1 23 8 7 13 -21 30 -14 30 13 0 24 -20 37 -31 19
-11 -18 -21 -6 -13 15 9 24 37 15 52 -17z m-1558 -22 c0 -27 -42 -58 -73 -53
-29 4 -25 35 8 65 30 27 65 20 65 -12z m2344 14 c34 -27 36 -69 2 -69 -30 0
-76 36 -76 60 0 16 10 23 41 29 4 0 18 -8 33 -20z m-1616 -153 c4 -34 -22 -66
-55 -66 -34 0 -32 51 4 80 33 25 47 22 51 -14z m870 18 c15 -11 22 -25 22 -50
0 -29 -3 -34 -24 -34 -17 0 -28 9 -41 36 -27 57 -5 82 43 48z m-1518 -10 c0
-2 -7 -22 -16 -44 -25 -61 -74 -82 -74 -31 0 36 51 94 74 85 9 -3 16 -8 16
-10z m2189 -29 c16 -30 18 -67 4 -72 -17 -6 -61 40 -69 72 -13 50 39 51 65 0z
m-1622 -112 c13 -34 -48 -101 -76 -84 -19 12 -17 58 4 81 22 24 63 26 72 3z
m1059 -7 c22 -35 15 -70 -15 -74 -30 -5 -60 31 -61 71 0 23 4 27 30 27 20 0
35 -8 46 -24z m-1738 -32 c4 -36 -36 -92 -56 -80 -17 11 -15 54 5 87 22 37 47
34 51 -7z m2392 4 c23 -38 26 -74 6 -81 -28 -11 -73 64 -59 99 9 24 32 16 53
-18z m-1820 -120 c0 -38 -25 -68 -56 -68 -61 0 -19 96 44 99 7 1 12 -12 12
-31z m1255 7 c14 -13 25 -36 25 -50 0 -21 -5 -25 -29 -25 -32 0 -46 13 -56 52
-13 52 20 64 60 23z m-1915 -47 c0 -38 -40 -95 -58 -84 -17 10 -15 39 5 81 22
47 53 48 53 3z m2559 13 c9 -16 8 -18 -9 -14 -22 6 -26 -8 -10 -38 14 -25 28
-24 33 4 3 12 4 6 4 -13 -2 -46 -24 -46 -48 0 -25 47 -25 80 1 80 10 0 24 -9
29 -19z m-2000 -89 c12 -23 3 -67 -19 -87 -21 -19 -55 -13 -64 11 -8 21 22 82
42 87 29 8 31 7 41 -11z m1450 1 c12 -10 24 -34 27 -54 6 -32 3 -38 -17 -44
-18 -6 -28 -2 -46 19 -34 40 -30 90 8 95 4 1 16 -7 28 -16z m-1169 -123 c0
-15 -14 -76 -31 -136 -26 -88 -30 -121 -26 -174 6 -89 41 -162 111 -233 31
-31 61 -69 66 -83 27 -70 -4 -146 -67 -163 -122 -34 -222 20 -287 154 -25 51
-30 75 -34 160 -5 120 11 191 68 306 33 67 79 140 100 159 3 3 17 21 30 40 41
59 44 60 57 28 7 -17 13 -43 13 -58z m938 -13 c63 -83 124 -198 150 -281 11
-34 16 -87 16 -161 -1 -103 -3 -114 -33 -175 -35 -72 -60 -104 -108 -138 -60
-43 -186 -38 -228 8 -10 11 -21 39 -25 62 -10 53 10 95 75 158 78 76 105 140
105 255 0 58 -7 102 -25 158 -27 83 -31 139 -15 183 13 32 11 33 88 -69z
m-1850 55 c5 -32 -28 -94 -47 -90 -12 3 -15 14 -14 42 4 62 53 101 61 48z
m2710 -5 c33 -69 1 -123 -33 -57 -9 18 -14 34 -12 37 3 2 8 -5 12 -16 7 -25
23 -27 31 -6 8 19 -15 48 -33 41 -13 -6 -18 15 -6 28 12 11 27 1 41 -27z
m-2165 -69 c15 -23 -8 -95 -34 -109 -41 -22 -62 26 -38 88 17 45 51 55 72 21z
m1640 -21 c32 -64 -1 -123 -44 -80 -25 25 -36 88 -19 108 20 24 43 14 63 -28z
m-2241 -74 c2 -10 0 -35 -5 -56 -8 -31 -14 -37 -31 -35 -26 4 -33 38 -16 79
14 32 46 39 52 12z m2818 -2 c5 -11 10 -26 9 -33 0 -7 -4 -3 -10 10 -11 28
-29 20 -29 -14 0 -17 5 -24 20 -24 11 0 20 -7 20 -15 0 -8 -9 -15 -19 -15 -23
0 -46 58 -36 90 8 25 31 26 45 1z m-1623 -42 c34 -13 80 -55 99 -91 17 -33 18
-108 2 -143 -24 -53 -115 -41 -167 22 -37 45 -56 123 -41 172 15 52 46 63 107
40z m473 -9 c38 -38 23 -146 -30 -212 -25 -32 -86 -54 -125 -44 -50 13 -72
113 -37 171 57 92 145 132 192 85z m-1144 -31 c14 -24 5 -92 -15 -112 -20 -20
-21 -20 -41 -2 -24 22 -26 71 -4 103 16 23 48 29 60 11z m1789 -19 c8 -16 15
-38 15 -50 0 -21 -32 -60 -50 -60 -15 0 -40 55 -40 88 0 56 50 71 75 22z
m-2337 -97 c4 -38 -13 -73 -33 -73 -8 0 -16 10 -17 23 -1 12 -2 31 -3 42 -2
33 6 46 29 43 16 -2 22 -11 24 -35z m2870 3 c8 -67 -29 -107 -45 -48 -12 46
-1 85 24 80 11 -2 19 -14 21 -32z m-2357 -86 c26 -14 26 -89 1 -120 l-19 -23
-22 22 c-19 19 -22 30 -16 59 13 77 18 82 56 62z m1845 -36 c16 -57 -7 -111
-42 -97 -13 5 -34 62 -34 91 0 17 39 54 53 49 7 -2 17 -21 23 -43z m-2355 -24
c10 -6 19 -21 19 -33 -1 -20 -2 -20 -11 -4 -5 9 -17 17 -26 17 -12 0 -14 -7
-9 -32 8 -40 12 -44 31 -28 12 10 15 10 15 -4 0 -25 -31 -32 -46 -11 -15 20
-18 62 -8 89 7 19 9 19 35 6z m2853 -16 c10 -37 -11 -94 -34 -94 -33 0 -40 70
-10 100 27 27 37 25 44 -6z m-3340 -20 c9 -22 8 -23 -14 -17 -21 5 -25 15 -13
26 11 11 20 8 27 -9z m3820 0 c8 -22 8 -26 -4 -19 -6 4 -18 1 -27 -7 -9 -7
-14 -8 -11 -3 2 6 8 18 11 28 8 21 23 22 31 1z m-3833 -61 c24 6 26 -21 3 -30
-20 -7 -34 14 -32 47 1 25 1 25 5 2 3 -18 10 -23 24 -19z m3831 -25 c-11 -11
-32 -3 -32 13 0 6 4 8 9 4 5 -3 13 0 17 7 6 9 9 9 12 -1 2 -7 0 -17 -6 -23z
m-2804 -24 c17 -11 22 -25 22 -58 0 -23 -5 -47 -12 -54 -34 -34 -78 10 -78 77
0 51 26 65 68 35z m1822 1 c16 -19 4 -88 -20 -110 -35 -32 -69 -2 -70 62 0 22
42 63 65 63 7 0 18 -7 25 -15z m-2306 -57 c25 -35 18 -98 -10 -98 -21 0 -44
42 -44 82 0 31 4 38 19 38 11 0 27 -10 35 -22z m2782 -2 c11 -45 -14 -96 -47
-96 -16 0 -19 8 -19 42 0 65 52 108 66 54z m-3306 -15 c20 -38 10 -101 -17
-101 -19 0 -45 64 -37 95 7 30 39 33 54 6z m3828 -17 c4 -43 -14 -86 -35 -82
-24 4 -30 36 -6 34 13 -1 19 7 21 32 4 37 -14 43 -28 10 -8 -22 -9 -22 -9 -2
-2 50 52 58 57 8z m-3230 -167 c26 -39 28 -63 6 -71 -23 -9 -62 19 -70 49 -15
60 28 75 64 22z m2650 3 c2 -18 -6 -34 -27 -54 -53 -51 -84 -7 -40 56 26 36
63 36 67 -2z m-3198 -51 c0 -54 -42 -48 -61 9 -10 31 -9 37 7 49 17 12 21 11
37 -8 9 -12 17 -34 17 -50z m3736 23 c-7 -47 -29 -70 -50 -52 -21 17 -20 36 4
71 29 39 54 29 46 -19z m-3071 -119 c24 -26 32 -53 19 -65 -11 -12 -58 9 -77
34 -40 54 11 81 58 31z m2423 6 c5 -26 -43 -69 -78 -69 -38 0 -38 16 0 58 32
35 72 41 78 11z m-3065 -17 c22 -24 33 -77 18 -86 -23 -14 -50 5 -57 39 -11
59 8 82 39 47z m3674 -28 c-7 -43 -23 -64 -48 -64 -15 0 -19 7 -19 31 0 44 17
69 47 69 24 0 25 -2 20 -36z m-2871 -69 c35 -35 28 -60 -15 -58 -45 2 -90 45
-71 67 19 24 58 19 86 -9z m2112 -1 c4 -27 -27 -53 -70 -60 -50 -9 -58 18 -18
57 36 36 83 38 88 3z m-2838 -76 c26 -28 27 -78 2 -78 -33 0 -57 40 -53 88 2
19 28 14 51 -10z m3530 -6 c0 -35 -26 -72 -51 -72 -17 0 -23 9 -16 27 1 4 10
6 20 5 20 -4 32 20 23 44 -5 14 -9 14 -24 3 -15 -13 -16 -12 -3 4 22 28 51 22
51 -11z m-2630 -2 c26 -26 25 -36 -5 -56 -22 -14 -26 -14 -55 2 -28 17 -40 51
-23 67 14 14 64 6 83 -13z m1764 5 c9 -23 -4 -44 -35 -61 -53 -27 -91 15 -52
58 20 22 78 24 87 3z m-1579 -45 c48 -40 -28 -90 -88 -59 -40 21 -45 39 -20
64 19 19 83 16 108 -5z m1415 2 l23 -19 -21 -21 c-29 -29 -68 -37 -98 -22 -30
17 -31 44 -2 64 30 21 71 20 98 -2z m-2445 -152 c25 -21 38 -1 19 28 l-17 27
21 -19 c29 -25 30 -76 3 -76 -21 0 -45 20 -62 51 -8 15 -7 24 3 36 12 15 13
13 16 -10 2 -14 9 -31 17 -37z m3399 13 c-12 -34 -58 -63 -74 -47 -14 14 12
84 30 84 7 0 5 -7 -4 -16 -19 -18 -20 -30 -6 -39 17 -10 40 15 40 43 0 20 3
23 12 14 8 -8 9 -20 2 -39z m-3023 -43 c10 -6 19 -16 19 -22 0 -20 -32 -48
-54 -47 -21 0 -21 0 2 16 25 17 30 43 8 43 -8 0 -22 -7 -30 -16 -9 -8 -16 -11
-16 -5 0 8 38 41 48 41 2 0 12 -5 23 -10z m2679 -23 c0 -5 -7 -4 -15 3 -8 7
-22 9 -31 6 -15 -6 -14 -9 6 -31 27 -28 8 -35 -22 -8 -23 20 -23 39 -1 51 18
11 63 -4 63 -21z m-2537 -5 c23 -20 22 -38 -5 -45 -39 -11 -90 32 -69 57 13
16 48 10 74 -12z m2407 13 c15 -18 -1 -42 -37 -56 -56 -21 -75 32 -20 56 41
18 42 18 57 0z m-1420 -66 c0 -48 -3 -55 -44 -95 -57 -58 -76 -58 -69 -1 4 34
16 52 56 95 28 28 53 52 54 52 2 0 3 -23 3 -51z m413 1 c31 -33 47 -58 47 -75
0 -15 5 -35 10 -46 8 -14 7 -19 -2 -19 -24 0 -86 49 -102 81 -16 33 -22 109
-8 109 4 0 29 -22 55 -50z m-1287 14 c38 -18 40 -22 20 -49 -12 -17 -17 -18
-40 -7 -29 13 -41 34 -32 57 7 19 10 19 52 -1z m2160 2 c16 -42 -55 -85 -81
-50 -15 21 -12 26 30 48 37 20 44 20 51 2z m-2670 -31 c20 -31 11 -65 -17 -58
-23 6 -49 40 -49 65 0 28 46 23 66 -7z m3190 9 c-3 -9 -6 -19 -6 -24 0 -16
-31 -40 -51 -40 -24 0 -26 36 -2 62 21 23 68 25 59 2z m-2872 -9 c11 -8 39
-15 63 -15 24 0 43 -5 43 -11 0 -5 25 -21 55 -35 30 -14 55 -30 55 -35 0 -29
-175 8 -247 53 -37 22 -38 23 -20 43 15 18 27 18 51 0z m2539 1 c17 -13 16
-16 -15 -39 -44 -33 -119 -58 -196 -64 -53 -5 -62 -3 -57 9 3 8 24 20 45 27
21 6 47 21 57 34 14 17 27 21 58 19 24 -2 48 3 60 12 24 19 26 19 48 2z
m-2215 -52 c12 -8 22 -20 22 -25 0 -6 -10 -3 -22 5 -32 23 -52 20 -45 -5 4
-15 1 -19 -11 -17 -10 2 -18 15 -20 31 -3 24 0 27 25 27 16 0 39 -7 51 -16z
m1918 1 c8 -19 -13 -45 -35 -44 -10 0 -11 2 -3 6 16 6 16 33 -1 33 -7 0 -23
-7 -35 -16 -19 -13 -22 -13 -22 0 0 32 85 51 96 21z m-1323 -7 c11 -34 -40
-84 -79 -76 -27 5 -29 43 -5 67 23 23 77 28 84 9z m725 -4 c14 -10 22 -25 22
-45 0 -24 -4 -29 -25 -29 -42 0 -91 61 -68 83 11 12 48 7 71 -9z m-1854 -45
c20 -15 26 -29 24 -48 -3 -25 -9 -27 -47 -22 -5 0 -20 15 -32 32 -22 31 -22
32 -4 45 25 18 27 18 59 -7z m2966 6 c28 -34 -41 -103 -75 -75 -19 16 -11 48
17 73 25 21 42 22 58 2z m-1979 -65 c19 0 8 -29 -22 -54 -40 -34 -69 -34 -69
-2 0 28 46 70 68 61 7 -3 18 -5 23 -5z m1012 -18 c21 -18 19 -56 -3 -60 -24
-4 -80 36 -80 57 0 34 46 36 83 3z m-1862 -41 c34 -34 30 -61 -10 -61 -45 1
-92 55 -69 78 20 20 48 13 79 -17z m2708 15 c23 -28 -21 -76 -69 -76 -33 0
-36 28 -4 61 30 32 55 37 73 15z m-2009 -56 c0 -25 -32 -50 -74 -57 -33 -5
-36 -4 -36 18 0 24 27 49 65 60 28 8 45 0 45 -21z m1318 4 c29 -20 30 -64 2
-64 -47 0 -104 52 -82 74 11 12 58 6 80 -10z m-1224 -36 c22 -36 -26 -64 -64
-37 -12 8 -9 9 12 5 35 -8 44 8 18 34 l-20 20 22 -3 c12 -2 26 -11 32 -19z
m1083 4 c-26 -28 -21 -43 9 -36 19 5 25 4 20 -5 -11 -18 -54 -13 -65 8 -11 20
-3 32 29 44 24 9 24 8 7 -11z m-1706 -33 c26 -26 21 -53 -12 -57 -31 -4 -79
32 -79 59 0 27 63 26 91 -2z m359 5 c20 -23 -18 -56 -67 -58 -34 -1 -38 2 -38
24 0 20 7 27 40 36 53 16 51 16 65 -2z m574 10 c20 -8 20 -28 0 -48 -20 -20
-100 -22 -107 -2 -14 35 58 69 107 50z m518 -11 c39 -35 9 -66 -51 -52 -43 9
-66 36 -50 56 16 18 79 16 101 -4z m576 -9 c26 -17 29 -42 6 -51 -22 -8 -94
15 -101 33 -15 40 41 51 95 18z m362 11 c0 -40 -80 -80 -106 -53 -13 13 -12
18 6 41 17 21 30 27 61 27 28 0 39 -4 39 -15z m-2595 -23 c-6 -15 11 -42 26
-42 13 0 11 34 -3 49 -11 10 -10 11 5 5 20 -7 34 -51 20 -65 -16 -16 -40 0
-57 36 -20 41 -20 46 0 38 8 -3 13 -12 9 -21z m959 15 c22 -16 17 -50 -7 -55
-51 -10 -90 24 -61 53 19 18 44 19 68 2z m850 7 c22 -8 20 -41 -3 -54 -28 -14
-57 -12 -71 5 -10 13 -10 19 5 35 18 20 41 25 69 14z m921 -16 c-9 -29 -44
-68 -62 -68 -8 0 -13 11 -13 28 0 28 16 52 34 52 6 0 5 -5 -2 -12 -16 -16 -16
-51 1 -46 6 3 13 13 15 24 5 33 11 44 22 44 7 0 9 -9 5 -22z m-2331 -21 c16
-27 -18 -49 -69 -45 -33 2 -41 7 -43 26 -2 16 3 25 20 32 34 14 79 8 92 -13z
m2017 6 c5 -5 6 -19 2 -31 -5 -20 -11 -23 -51 -20 -53 4 -74 26 -52 53 11 13
24 16 53 12 22 -3 43 -9 48 -14z m-2291 -107 c17 -21 6 -20 -15 0 -25 26 -44
1 -20 -26 20 -22 45 -27 45 -7 0 8 3 7 10 -3 14 -22 -5 -36 -32 -23 -28 13
-53 56 -44 78 6 18 32 9 56 -19z m2516 20 c13 -34 -59 -106 -82 -83 -10 10 6
44 33 71 29 30 41 32 49 12z m-2399 -129 c39 -36 41 -70 5 -60 -30 7 -76 59
-69 77 9 24 23 20 64 -17z m2290 17 c3 -9 -5 -27 -22 -44 -30 -31 -56 -42 -76
-30 -10 7 -10 11 1 25 10 12 15 13 21 4 10 -17 59 4 59 26 0 18 -21 20 -38 3
-7 -7 -12 -8 -12 -2 0 10 35 32 53 33 4 1 10 -6 14 -15z m-2197 -110 c-11 -12
-10 -18 3 -32 24 -23 47 -1 26 24 -12 15 -12 17 1 12 16 -5 37 -54 28 -64 -10
-9 -78 26 -88 46 -11 21 -4 30 23 30 16 0 17 -2 7 -16z m2074 8 c11 -19 -59
-72 -95 -72 -17 0 -9 31 16 55 23 24 69 34 79 17z m-1926 -81 c10 -6 8 -10 -9
-14 -20 -5 -21 -8 -8 -24 12 -16 11 -16 -9 1 -12 11 -22 25 -22 33 0 15 28 17
48 4z m1792 -4 c0 -8 -9 -22 -19 -31 -19 -17 -19 -17 -14 3 4 16 1 21 -15 21
-29 0 -38 -21 -17 -37 17 -12 16 -13 -13 -13 -35 0 -39 7 -19 32 27 35 97 52
97 25z m-1740 -43 c0 -8 -10 -14 -24 -14 -22 0 -23 2 -13 24 9 18 15 22 24 14
7 -6 13 -17 13 -24z m110 -34 c11 -6 24 -19 30 -30 10 -18 8 -20 -22 -19 -18
1 -25 3 -15 6 21 5 22 17 2 33 -17 14 -39 4 -31 -16 4 -11 2 -12 -14 -1 -45
27 2 53 50 27z m1490 1 c0 -21 -26 -27 -42 -9 -17 17 -17 18 12 18 17 0 30 -4
30 -9z m-78 -23 c-4 -18 -2 -20 16 -16 12 4 20 2 16 -3 -7 -12 -64 -12 -64 0
0 9 27 41 35 41 2 0 1 -10 -3 -22z m-1310 -40 c-9 -9 -9 -15 1 -27 6 -9 2 -8
-11 3 -17 15 -19 22 -10 28 20 12 34 10 20 -4z m1238 -8 c0 -4 -6 -12 -12 -18
-10 -8 -13 -4 -14 13 -1 16 2 22 12 18 8 -3 14 -9 14 -13z m-1185 -16 c0 -11
-8 -20 -20 -22 -19 -3 -19 -2 -2 8 15 10 16 14 5 27 -11 14 -11 15 2 11 8 -2
15 -13 15 -24z m1125 16 c-13 -9 -12 -12 4 -25 22 -17 2 -22 -23 -6 -12 8 -12
12 -2 25 8 9 19 16 25 16 6 0 4 -5 -4 -10z m-995 -46 c21 -21 15 -38 -16 -42
-23 -3 -23 -3 -5 11 22 16 14 37 -14 37 -24 0 -36 -20 -19 -31 8 -5 10 -9 4
-9 -21 0 -38 19 -32 34 8 21 61 21 82 0z m923 -6 c-2 -12 -8 -23 -15 -25 -7
-3 -9 3 -6 17 5 18 2 21 -18 18 -29 -4 -38 -34 -12 -41 12 -3 8 -5 -9 -6 -21
-1 -28 4 -28 19 0 23 25 39 63 40 24 0 28 -4 25 -22z"/>
<path d="M4771 3877 c-14 -17 -4 -27 26 -27 26 0 32 25 7 34 -21 8 -20 8 -33
-7z"/>
<path d="M4615 3850 c-4 -7 -3 -16 2 -21 12 -12 55 1 50 15 -5 15 -44 20 -52
6z"/>
<path d="M6110 3846 c0 -14 37 -29 51 -20 5 2 6 11 2 19 -7 19 -53 20 -53 1z"/>
<path d="M5810 3805 c-16 -19 -6 -46 15 -39 16 7 21 39 6 48 -5 3 -14 -1 -21
-9z"/>
<path d="M4934 3807 c-7 -20 3 -37 21 -37 23 0 26 16 5 35 -18 16 -20 16 -26
2z"/>
<path d="M4470 3780 c0 -22 1 -23 24 -14 23 9 20 34 -4 34 -13 0 -20 -7 -20
-20z"/>
<path d="M6260 3790 c0 -11 40 -34 47 -26 3 3 3 12 0 21 -7 16 -47 21 -47 5z"/>
<path d="M4333 3723 c-20 -7 -15 -33 5 -33 19 0 42 18 42 32 0 9 -27 9 -47 1z"/>
<path d="M6402 3713 c2 -11 14 -19 31 -21 31 -4 36 12 8 28 -29 15 -43 12 -39
-7z"/>
<path d="M4198 3629 c-19 -10 -25 -39 -9 -39 23 0 41 14 41 31 0 21 -7 23 -32
8z"/>
<path d="M6544 3628 c-8 -12 21 -38 43 -38 20 0 15 28 -6 40 -25 13 -28 13
-37 -2z"/>
<path d="M4937 3493 c-4 -3 -7 -15 -7 -25 0 -22 26 -24 34 -2 10 25 -10 45
-27 27z"/>
<path d="M5810 3480 c0 -11 7 -23 15 -27 21 -8 28 1 20 26 -8 27 -35 27 -35 1z"/>
<path d="M4270 3461 c-14 -27 -13 -41 5 -41 17 0 39 36 30 50 -10 16 -23 12
-35 -9z"/>
<path d="M6470 3461 c0 -23 28 -48 39 -35 13 13 -6 54 -24 54 -8 0 -15 -8 -15
-19z"/>
<path d="M4836 3328 c-19 -27 -5 -48 19 -28 16 14 21 50 6 50 -6 0 -17 -10
-25 -22z"/>
<path d="M5905 3340 c-9 -14 13 -50 30 -50 18 0 19 14 5 41 -12 21 -25 25 -35
9z"/>
<path d="M4170 3305 c-10 -12 -10 -19 -2 -27 15 -15 48 14 38 31 -10 15 -21
14 -36 -4z"/>
<path d="M6570 3300 c0 -11 7 -23 15 -27 21 -8 28 1 20 26 -8 27 -35 27 -35 1z"/>
<path d="M4742 3198 c-15 -15 -16 -51 0 -46 6 2 16 12 22 21 14 22 -4 43 -22
25z"/>
<path d="M6005 3200 c-7 -11 12 -50 25 -50 16 0 21 19 10 40 -12 22 -25 26
-35 10z"/>
<path d="M4080 3140 c-16 -30 1 -47 24 -24 9 9 15 21 13 27 -6 20 -26 18 -37
-3z"/>
<path d="M4646 3065 c-19 -20 -21 -55 -3 -55 18 0 41 50 29 62 -6 6 -16 3 -26
-7z"/>
<path d="M6097 3074 c-8 -8 21 -64 33 -64 18 0 21 22 6 45 -17 25 -27 30 -39
19z"/>
<path d="M4014 2985 c-4 -8 -3 -23 1 -32 6 -17 7 -17 21 1 8 11 14 26 14 33 0
18 -29 16 -36 -2z"/>
<path d="M4556 2905 c-20 -21 -21 -55 -1 -55 19 0 40 49 27 62 -6 6 -16 3 -26
-7z"/>
<path d="M6196 2911 c-13 -21 3 -61 24 -61 25 0 26 21 2 51 -14 16 -21 19 -26
10z"/>
<path d="M3954 2805 c-9 -23 3 -45 21 -39 20 8 20 54 0 54 -9 0 -18 -7 -21
-15z"/>
<path d="M5142 2708 c-22 -22 -14 -68 17 -98 40 -40 77 -48 103 -22 28 28 16
58 -35 83 -23 12 -49 27 -58 35 -12 11 -18 11 -27 2z"/>
<path d="M5580 2694 c-75 -50 -80 -55 -80 -80 0 -17 8 -28 26 -36 55 -25 138
53 118 110 -12 34 -22 35 -64 6z"/>
<path d="M4480 2704 c-7 -18 -7 -31 -1 -37 15 -15 43 12 39 36 -5 31 -27 32
-38 1z"/>
<path d="M6264 2716 c-9 -23 0 -51 16 -51 10 0 15 10 15 29 0 32 -21 47 -31
22z"/>
<path d="M3936 2631 c-9 -14 4 -41 20 -41 8 0 14 10 14 25 0 25 -23 35 -34 16z"/>
<path d="M6810 2615 c0 -16 6 -25 15 -25 9 0 15 9 15 25 0 16 -6 25 -15 25 -9
0 -15 -9 -15 -25z"/>
<path d="M4462 2508 c-20 -20 -15 -58 8 -58 16 0 20 7 20 35 0 37 -8 43 -28
23z"/>
<path d="M6287 2512 c-3 -4 -3 -19 0 -35 4 -18 12 -27 24 -27 16 0 18 5 13 28
-4 15 -9 30 -11 35 -5 9 -20 9 -26 -1z"/>
<path d="M6789 2457 c-12 -27 -7 -57 11 -57 6 0 15 12 21 27 7 20 6 30 -5 41
-13 14 -16 12 -27 -11z"/>
<path d="M4472 2298 c4 -40 38 -54 38 -16 0 24 -16 48 -33 48 -4 0 -7 -15 -5
-32z"/>
<path d="M6277 2323 c-13 -12 -7 -63 7 -63 15 0 26 21 26 51 0 18 -20 26 -33
12z"/>
<path d="M3985 2271 c-7 -13 12 -51 26 -51 14 0 7 52 -8 57 -6 2 -14 -1 -18
-6z"/>
<path d="M6759 2259 c-7 -14 -8 -24 -1 -31 15 -15 32 0 32 28 0 30 -15 31 -31
3z"/>
<path d="M3466 2261 c-11 -16 5 -61 21 -61 10 0 13 9 11 32 -3 32 -21 48 -32
29z"/>
<path d="M4055 2090 c-7 -12 12 -50 26 -50 16 0 22 29 9 45 -14 17 -26 19 -35
5z"/>
<path d="M6686 2081 c-18 -20 -14 -41 7 -41 16 0 39 38 32 50 -9 15 -20 12
-39 -9z"/>
<path d="M3506 2081 c-10 -16 3 -51 20 -51 18 0 18 21 1 45 -10 12 -16 15 -21
6z"/>
<path d="M7242 2069 c-13 -20 -9 -39 8 -39 5 0 14 9 19 19 16 28 -10 47 -27
20z"/>
<path d="M4164 1938 c-8 -12 21 -38 43 -38 16 0 17 22 1 38 -15 15 -35 15 -44
0z"/>
<path d="M6565 1930 c-17 -18 -17 -20 -1 -26 20 -8 52 19 42 35 -10 16 -21 14
-41 -9z"/>
<path d="M3547 1914 c-8 -9 11 -44 24 -44 6 0 9 10 7 22 -3 22 -19 34 -31 22z"/>
<path d="M7196 1903 c-9 -23 12 -43 24 -23 5 8 10 21 10 28 0 18 -27 15 -34
-5z"/>
<path d="M4315 1830 c-3 -5 6 -17 20 -26 20 -13 29 -14 38 -5 9 10 8 16 -7 27
-23 16 -42 18 -51 4z"/>
<path d="M6412 1828 c-16 -16 -15 -38 1 -38 17 1 47 25 47 39 0 15 -33 14 -48
-1z"/>
<path d="M3610 1754 c0 -16 23 -44 35 -44 18 0 20 21 3 38 -12 12 -38 17 -38
6z"/>
<path d="M4480 1742 c0 -14 23 -32 42 -32 22 0 24 26 2 34 -22 8 -44 7 -44 -2z"/>
<path d="M6240 1736 c-10 -13 -9 -17 5 -22 19 -7 50 7 50 22 0 16 -41 15 -55
0z"/>
<path d="M4653 1703 c-7 -2 -13 -11 -13 -18 0 -15 35 -26 56 -18 15 6 19 33 5
33 -5 0 -15 2 -23 4 -7 3 -19 2 -25 -1z"/>
<path d="M6088 1703 c-20 -5 -24 -29 -6 -35 21 -7 58 4 58 17 0 10 -26 29 -33
24 -1 -1 -10 -3 -19 -6z"/>
<path d="M4165 1500 c-4 -7 -3 -16 3 -22 14 -14 47 -6 47 12 0 18 -40 26 -50
10z"/>
<path d="M6567 1504 c-17 -18 -6 -35 21 -32 16 2 27 9 27 18 0 16 -36 26 -48
14z"/>
<path d="M4297 1454 c-11 -11 13 -34 35 -34 13 0 18 6 16 18 -3 17 -38 29 -51
16z"/>
<path d="M6431 1446 c-8 -10 -9 -16 -1 -21 15 -9 52 5 47 18 -6 18 -32 20 -46
3z"/>
<path d="M3780 1436 c0 -18 27 -39 40 -31 7 4 7 12 0 26 -12 22 -40 26 -40 5z"/>
<path d="M6962 1438 c-16 -16 -15 -38 1 -38 17 0 37 20 37 37 0 16 -22 17 -38
1z"/>
<path d="M4990 1351 c-6 -13 -7 -22 0 -26 12 -8 50 16 50 32 0 20 -38 15 -50
-6z"/>
<path d="M5735 1360 c-6 -10 42 -46 51 -37 3 3 3 15 -1 26 -6 21 -39 29 -50
11z"/>
<path d="M3890 1314 c0 -18 23 -44 39 -44 19 0 12 39 -8 50 -26 14 -31 13 -31
-6z"/>
<path d="M6845 1310 c-14 -16 -16 -23 -7 -32 10 -10 17 -7 33 9 12 11 18 26
15 32 -10 16 -21 14 -41 -9z"/>
<path d="M4860 1245 c-10 -12 -10 -19 -2 -27 15 -15 48 14 38 31 -10 15 -21
14 -36 -4z"/>
<path d="M5877 1253 c-12 -11 -8 -22 14 -34 31 -16 52 7 25 27 -22 16 -30 17
-39 7z"/>
<path d="M4020 1201 c0 -22 25 -39 38 -27 8 8 -10 38 -26 44 -7 2 -12 -6 -12
-17z"/>
<path d="M6720 1200 c-6 -12 -9 -25 -5 -28 9 -9 40 13 40 28 0 23 -23 22 -35
0z"/>
<path d="M4702 1168 c-15 -15 -16 -38 -1 -38 6 0 19 5 30 11 16 8 18 13 8 25
-14 17 -21 18 -37 2z"/>
<path d="M6034 1168 c-8 -12 21 -38 43 -38 16 0 17 22 1 38 -15 15 -35 15 -44
0z"/>
<path d="M4174 1109 c-8 -13 4 -25 34 -34 19 -6 23 -4 20 10 -4 21 -44 39 -54
24z"/>
<path d="M4528 1099 c-29 -16 -21 -31 14 -27 22 2 34 9 36 21 4 19 -22 23 -50
6z"/>
<path d="M5117 1112 c-20 -2 -27 -8 -25 -20 4 -22 29 -26 53 -8 25 18 10 33
-28 28z"/>
<path d="M5612 1098 c6 -18 58 -32 70 -20 17 17 -1 32 -38 32 -23 0 -34 -4
-32 -12z"/>
<path d="M6197 1103 c-13 -12 15 -33 44 -33 33 0 38 15 10 30 -22 11 -45 13
-54 3z"/>
<path d="M6544 1099 c-3 -6 -2 -15 3 -20 12 -12 50 0 57 17 7 17 -49 20 -60 3z"/>
<path d="M4935 1100 c-9 -14 1 -27 25 -33 19 -5 41 17 29 27 -12 11 -48 15
-54 6z"/>
<path d="M5801 1099 c-19 -7 -21 -12 -11 -24 14 -16 55 -5 55 15 0 18 -15 21
-44 9z"/>
<path d="M4361 1081 c-23 -15 -6 -39 23 -34 29 6 35 28 10 37 -19 7 -16 8 -33
-3z"/>
<path d="M6377 1083 c-14 -13 -6 -31 15 -37 32 -8 48 12 24 30 -22 16 -30 17
-39 7z"/>
<path d="M6627 972 c-22 -24 -22 -44 -1 -40 24 4 41 35 28 48 -7 7 -16 5 -27
-8z"/>
<path d="M4230 866 c0 -21 28 -39 47 -31 16 6 16 8 -6 26 -27 22 -41 24 -41 5z"/>
<path d="M6382 768 c-14 -14 -16 -38 -3 -38 15 0 42 31 36 41 -8 12 -19 11
-33 -3z"/>
</g>
</svg>